<?xml version="1.0" encoding="UTF-8"?>
<svg xmlns="http://www.w3.org/2000/svg" xmlns:xlink="http://www.w3.org/1999/xlink" viewBox="0 0 96 96" width="96px" height="96px">
<g id="surface94504930">
<path style=" stroke:none;fill-rule:nonzero;fill:rgb(12.156863%,35.294119%,17.647059%);fill-opacity:1;" d="M 48.046875 8 C 26.023438 8 8.09375 25.914062 8.085938 47.9375 C 8.082031 54.976562 9.925781 61.851562 13.421875 67.90625 L 8 88 L 28.929688 83.054688 C 34.765625 86.238281 41.335938 87.910156 48.023438 87.914062 L 48.039062 87.914062 C 70.058594 87.914062 87.980469 69.996094 87.992188 47.976562 C 88 37.300781 83.847656 27.261719 76.304688 19.710938 C 68.761719 12.164062 58.734375 8.003906 48.046875 8 Z M 48.039062 16 C 56.582031 16.003906 64.613281 19.335938 70.648438 25.367188 C 76.683594 31.40625 80 39.433594 79.992188 47.96875 C 79.984375 65.585938 65.65625 79.914062 48.03125 79.914062 C 42.699219 79.910156 37.417969 78.570312 32.765625 76.03125 L 30.070312 74.5625 L 27.09375 75.265625 L 19.21875 77.125 L 21.140625 69.984375 L 22.007812 66.78125 L 20.351562 63.90625 C 17.558594 59.074219 16.082031 53.550781 16.085938 47.9375 C 16.09375 30.328125 30.425781 16 48.039062 16 Z M 33.90625 29.5 C 33.238281 29.5 32.15625 29.75 31.242188 30.75 C 30.328125 31.746094 27.742188 34.160156 27.742188 39.070312 C 27.742188 43.980469 31.320312 48.730469 31.820312 49.398438 C 32.316406 50.0625 38.726562 60.460938 48.875 64.460938 C 57.308594 67.785156 59.019531 67.128906 60.851562 66.960938 C 62.683594 66.796875 66.761719 64.550781 67.59375 62.21875 C 68.425781 59.886719 68.425781 57.878906 68.179688 57.46875 C 67.933594 57.054688 67.265625 56.804688 66.265625 56.304688 C 65.269531 55.804688 60.359375 53.394531 59.445312 53.0625 C 58.53125 52.730469 57.859375 52.5625 57.195312 53.5625 C 56.53125 54.5625 54.625 56.804688 54.039062 57.46875 C 53.453125 58.136719 52.875 58.226562 51.875 57.726562 C 50.875 57.222656 47.660156 56.164062 43.84375 52.765625 C 40.875 50.121094 38.875 46.859375 38.289062 45.859375 C 37.710938 44.863281 38.234375 44.316406 38.734375 43.820312 C 39.183594 43.371094 39.726562 42.65625 40.226562 42.070312 C 40.722656 41.484375 40.894531 41.070312 41.226562 40.40625 C 41.558594 39.742188 41.386719 39.15625 41.140625 38.65625 C 40.894531 38.15625 38.949219 33.226562 38.0625 31.25 C 37.316406 29.589844 36.523438 29.550781 35.8125 29.523438 C 35.234375 29.5 34.570312 29.5 33.90625 29.5 Z M 33.90625 29.5 "/>
</g>
</svg>
