<?xml version="1.0" encoding="UTF-8"?>
<svg xmlns="http://www.w3.org/2000/svg" xmlns:xlink="http://www.w3.org/1999/xlink" viewBox="0 0 192 192" width="192px" height="192px">
<g id="surface95123698">
<path style=" stroke:none;fill-rule:nonzero;fill:rgb(12.156863%,35.294119%,17.647059%);fill-opacity:1;" d="M 95.300781 18 C 23.613281 18 18 23.613281 18 95.300781 L 18 96.699219 C 18 168.386719 23.613281 174 95.300781 174 L 96.699219 174 C 168.386719 174 174 168.386719 174 96.699219 L 174 96 C 174 23.664062 168.335938 18 96 18 Z M 80.398438 33.601562 L 111.601562 33.601562 C 155.003906 33.601562 158.398438 36.996094 158.398438 80.398438 L 158.398438 111.601562 C 158.398438 155.003906 155.003906 158.398438 111.601562 158.398438 L 80.398438 158.398438 C 36.996094 158.398438 33.601562 155.003906 33.601562 111.601562 L 33.601562 80.398438 C 33.601562 36.996094 36.996094 33.601562 80.398438 33.601562 Z M 134.976562 49.199219 C 130.667969 49.210938 127.1875 52.714844 127.199219 57.023438 C 127.210938 61.332031 130.714844 64.8125 135.023438 64.800781 C 139.332031 64.789062 142.8125 61.285156 142.800781 56.976562 C 142.789062 52.667969 139.285156 49.1875 134.976562 49.199219 Z M 95.910156 57 C 74.371094 57.050781 56.949219 74.554688 57 96.089844 C 57.050781 117.628906 74.554688 135.050781 96.089844 135 C 117.628906 134.949219 135.050781 117.445312 135 95.910156 C 134.949219 74.371094 117.445312 56.949219 95.910156 57 Z M 95.945312 72.601562 C 108.867188 72.570312 119.367188 83.027344 119.398438 95.945312 C 119.425781 108.867188 108.972656 119.367188 96.054688 119.398438 C 83.132812 119.429688 72.632812 108.976562 72.601562 96.054688 C 72.570312 83.132812 83.027344 72.632812 95.945312 72.601562 Z M 95.945312 72.601562 "/>
</g>
</svg>
